<?xml version="1.0" standalone="no"?>
<!DOCTYPE svg PUBLIC "-//W3C//DTD SVG 20010904//EN"
 "http://www.w3.org/TR/2001/REC-SVG-20010904/DTD/svg10.dtd">
<svg version="1.0" xmlns="http://www.w3.org/2000/svg"
 width="558.000000pt" height="558.000000pt" viewBox="0 0 558.000000 558.000000"
 preserveAspectRatio="xMidYMid meet">
<metadata>
Created by potrace 1.11, written by Peter Selinger 2001-2013
</metadata>
<g transform="translate(0.000000,558.000000) scale(0.100000,-0.100000)"
fill="#000000" stroke="none">
<path d="M775 2790 l0 -2170 55 0 c449 -3 1901 1 1950 5 543 49 1050 276 1404
629 324 323 521 723 591 1201 20 132 23 494 6 630 -91 718 -494 1300 -1121
1619 -223 114 -416 177 -700 229 -111 20 -149 21 -1150 24 l-1035 4 0 -2171z
m2040 1906 c328 -51 530 -113 755 -232 542 -287 886 -798 960 -1427 15 -127
15 -366 0 -493 -65 -563 -353 -1041 -807 -1337 -275 -179 -596 -290 -941 -324
-42 -5 -455 -8 -916 -8 l-839 0 1 1905 c0 1048 1 1911 1 1918 1 11 159 12 874
9 479 -2 890 -7 912 -11z"/>
<path d="M1279 4441 c-1 -21 -1 -3292 0 -3307 1 -7 171 -10 579 -10 l577 1 1
122 c0 79 -3 123 -10 125 -6 2 -210 3 -453 3 l-443 -1 0 1541 0 1542 -125 0
c-108 0 -125 -2 -126 -16z"/>
<path d="M1779 4454 c0 -2 -1 -58 -2 -124 -2 -100 0 -120 13 -121 8 0 213 -2
455 -3 459 -3 496 -5 660 -37 452 -89 804 -345 992 -724 63 -125 111 -285 132
-436 15 -112 10 -374 -10 -484 -31 -176 -47 -227 -111 -365 -119 -258 -311
-458 -578 -602 -75 -41 -261 -112 -335 -129 -27 -6 -59 -13 -70 -15 -39 -9
-131 -23 -176 -27 -26 -3 -51 -7 -55 -10 -7 -4 -11 -172 -5 -235 1 -11 16 -12
74 -7 67 7 188 26 247 40 14 3 36 8 49 11 13 3 70 20 126 39 525 174 922 589
1050 1101 69 274 72 642 9 889 -9 33 -18 70 -20 82 -8 43 -65 187 -105 267
-247 492 -734 812 -1345 882 -56 6 -994 14 -995 8z"/>
</g>
</svg>
