<?xml version="1.0" standalone="no"?>
<!DOCTYPE svg PUBLIC "-//W3C//DTD SVG 20010904//EN"
 "http://www.w3.org/TR/2001/REC-SVG-20010904/DTD/svg10.dtd">
<svg version="1.0" xmlns="http://www.w3.org/2000/svg"
 width="558.000000pt" height="558.000000pt" viewBox="0 0 558.000000 558.000000"
 preserveAspectRatio="xMidYMid meet">
<metadata>
Created by potrace 1.11, written by Peter Selinger 2001-2013
</metadata>
<g transform="translate(0.000000,558.000000) scale(0.100000,-0.100000)"
fill="#000000" stroke="none">
<path d="M770 2790 l0 -2181 1023 4 c562 2 1033 6 1047 9 14 4 48 9 75 13 458
59 919 275 1239 582 331 317 534 705 617 1178 33 188 35 556 4 765 -38 258
-136 535 -268 759 -303 513 -813 870 -1425 996 -238 50 -195 48 -1284 52
l-1028 4 0 -2181z m1995 1916 c295 -36 500 -91 710 -190 213 -101 369 -207
517 -352 373 -366 563 -850 553 -1414 -5 -309 -63 -563 -186 -819 -187 -390
-464 -665 -864 -857 -201 -96 -447 -168 -650 -189 -33 -4 -71 -9 -85 -12 -14
-3 -411 -6 -882 -7 l-858 -3 0 1922 c0 1057 2 1924 5 1927 8 7 1675 2 1740 -6z"/>
<path d="M1276 4460 c-3 -5 0 -3331 3 -3340 1 -4 1127 -5 1151 -1 3 1 6 57 5
126 l0 125 -451 0 c-353 0 -453 3 -456 12 -2 7 -3 703 -3 1546 1 1057 -2 1532
-10 1533 -43 4 -237 3 -239 -1z"/>
<path d="M1776 4460 c-2 -3 -2 -59 -2 -125 l1 -120 35 -2 c19 -2 238 -4 485
-6 248 -2 461 -7 475 -10 14 -3 48 -8 75 -12 115 -15 287 -66 403 -121 41 -19
76 -34 78 -34 10 0 169 -103 212 -137 75 -59 203 -192 256 -266 102 -145 186
-341 222 -522 27 -136 34 -394 14 -534 -43 -309 -166 -567 -365 -766 -90 -91
-105 -103 -196 -166 -180 -126 -421 -217 -659 -249 -47 -6 -94 -13 -105 -15
-19 -4 -20 -11 -19 -117 1 -62 2 -118 3 -124 2 -20 147 -2 341 41 229 51 484
172 663 314 162 129 278 264 394 456 68 112 159 370 178 500 4 22 8 47 10 55
24 86 23 456 0 585 -21 112 -40 188 -66 267 -168 514 -579 894 -1124 1038 -60
16 -123 32 -140 34 -112 19 -170 26 -245 32 -99 8 -921 11 -924 4z"/>
</g>
</svg>
