<svg xmlns="http://www.w3.org/2000/svg" xmlns:xlink="http://www.w3.org/1999/xlink" width="48" height="48" viewBox="0 0 48 48">
  <defs>
    <path id="behance_white-a" d="M24,0 C37.255,0 48,10.745 48,24 C48,36.682316 38.1634207,47.0668364 25.7033316,47.9404916 L22.2966684,47.9404916 C9.8365793,47.0668364 0,36.682316 0,24 C0,10.745 10.745,0 24,0 Z M30.989,19.758 C29.274,19.758 27.882,20.294 26.806,21.359 C25.732,22.427 25.195,23.961 25.195,25.961 C25.195,28.093 25.788,29.635 26.982,30.58 C28.169,31.528 29.544,32 31.101,32 C32.987,32 34.455,31.439 35.503,30.318 C36.174,29.611 36.553,28.914 36.636,28.231 L33.513,28.231 C33.332,28.57 33.121,28.834 32.882,29.026 C32.447,29.378 31.88,29.554 31.186,29.554 C30.526,29.554 29.965,29.409 29.498,29.119 C28.728,28.654 28.324,27.842 28.273,26.685 L36.797,26.685 C36.811,25.689 36.777,24.923 36.695,24.394 C36.553,23.49 36.243,22.694 35.76,22.008 C35.23,21.23 34.557,20.66 33.74,20.3 C32.924,19.939 32.008,19.758 30.989,19.758 Z M18.845,16 L11.2,16 L11.2,31.606 L18.329,31.606 C19.132,31.606 19.876,31.538 20.564,31.397 C21.252,31.255 21.846,30.995 22.35,30.613 C22.799,30.28 23.172,29.871 23.47,29.385 C23.941,28.652 24.176,27.821 24.176,26.896 C24.176,25.999 23.97,25.236 23.561,24.61 C23.147,23.981 22.539,23.523 21.732,23.232 C22.263,22.964 22.665,22.667 22.939,22.344 C23.428,21.764 23.67,20.997 23.67,20.045 C23.67,19.12 23.428,18.327 22.945,17.663 C22.14,16.582 20.774,16.028 18.845,16 Z M34.337,16.728 L27.558,16.728 L27.558,18.67 L34.337,18.67 L34.337,16.728 Z"/>
    <path id="behance_white-c" d="M4.249,6.736 C4.926,6.742 5.454,6.831 5.831,7 C6.504,7.305 6.838,7.861 6.838,8.675 C6.838,9.634 6.491,10.282 5.798,10.623 C5.417,10.806 4.881,10.898 4.195,10.898 L0.353,10.898 L0.353,6.736 L4.249,6.736 Z M16.99,4.249 C17.713,4.249 18.316,4.455 18.807,4.869 C19.292,5.286 19.565,5.892 19.621,6.694 L14.348,6.694 C14.46,5.943 14.732,5.347 15.164,4.908 C15.596,4.468 16.207,4.249 16.99,4.249 Z M3.797,0.71 C4.554,0.71 5.177,0.792 5.668,0.954 C6.234,1.188 6.517,1.668 6.517,2.397 C6.517,3.05 6.302,3.508 5.874,3.766 C5.444,4.024 4.885,4.154 4.201,4.154 L0.353,4.154 L0.353,0.71 L3.797,0.71 Z"/>
  </defs>
  <g fill="none" fill-rule="evenodd">
    <mask id="behance_white-b" fill="#fff">
      <use xlink:href="#behance_white-a"/>
    </mask>
    <polygon fill="#FFF" points="0 47.94 48 47.94 48 -.06 0 -.06" mask="url(#behance_white-b)"/>
    <g transform="translate(14 18)">
      <mask id="behance_white-d" fill="#fff">
        <use xlink:href="#behance_white-c"/>
      </mask>
      <polygon fill="#FFF" points=".28 10.98 19.72 10.98 19.72 .66 .28 .66" mask="url(#behance_white-d)"/>
    </g>
  </g>
</svg>
