<svg xmlns="http://www.w3.org/2000/svg" xmlns:xlink="http://www.w3.org/1999/xlink" width="48" height="48" viewBox="0 0 48 48">
  <defs>
    <path id="linkedin_white-a" d="M24,0 C37.255,0 48,10.745 48,24 C48,36.682316 38.1634207,47.0668364 25.7033316,47.9404916 L22.2966684,47.9404916 C9.8365793,47.0668364 0,36.682316 0,24 C0,10.745 10.745,0 24,0 Z M16.961,19.878 L11.522,19.878 L11.522,36.22 L16.961,36.22 L16.961,19.878 Z M30.313,19.494 C27.425,19.494 26.133,21.08 25.411,22.193 L25.411,19.878 L19.971,19.878 C19.9909385,20.3028 19.9998341,21.7455351 20.0022739,23.6098496 L20.002104,26.293072 C20.001247,27.0528775 19.9998233,27.8327658 19.9980437,28.6053315 L19.996436,29.2650982 C19.988292,32.4391242 19.975073,35.3530808 19.9717677,36.0583115 L19.971,36.22 L25.411,36.22 L25.411,27.093 C25.411,26.605 25.446,26.118 25.59,25.768 C25.983,24.792 26.878,23.782 28.381,23.782 C30.349,23.782 31.136,25.281 31.136,27.477 L31.136,36.22 L36.575,36.22 L36.575,26.85 C36.575,21.83 33.892,19.494 30.313,19.494 Z M14.277,12 C12.416,12 11.2,13.22 11.2,14.823 C11.2,16.392 12.38,17.647 14.206,17.647 L14.241,17.647 C16.138,17.647 17.319,16.392 17.319,14.823 C17.283,13.22 16.138,12 14.277,12 Z"/>
  </defs>
  <g fill="none" fill-rule="evenodd">
    <mask id="linkedin_white-b" fill="#fff">
      <use xlink:href="#linkedin_white-a"/>
    </mask>
    <polygon fill="#FFF" points="0 47.94 48 47.94 48 -.06 0 -.06" mask="url(#linkedin_white-b)"/>
  </g>
</svg>
