<?xml version="1.0" encoding="utf-8"?>
<!-- Generator: Adobe Illustrator 25.2.1, SVG Export Plug-In . SVG Version: 6.00 Build 0)  -->
<svg version="1.1" xmlns="http://www.w3.org/2000/svg" xmlns:xlink="http://www.w3.org/1999/xlink" x="0px" y="0px"
	 viewBox="0 0 74.3 80" style="enable-background:new 0 0 74.3 80;" xml:space="preserve">
<style type="text/css">
	.st0{fill:#FFFFFF;}
	.st1{fill:#E39898;}
	.st2{fill:#8DA485;}
</style>
<g id="Layer_1">
</g>
<g id="Layer_2">
	<g>
		<path class="st0" d="M69,19.4c-3.6-6.1-8.6-10.9-15.1-14.4C47.6,1.7,40.3,0,32.3,0H0v80h32.3c8,0,15.3-1.7,21.6-5.1
			c6.4-3.4,11.5-8.3,15.1-14.4c3.5-6.1,5.3-13,5.3-20.6C74.3,32.4,72.5,25.5,69,19.4z M66.2,58.9c-3.3,5.6-7.9,10-13.8,13.1
			c-5.9,3.1-12.6,4.7-20.1,4.7H3.2V3.2h29.1c7.5,0,14.2,1.6,20.1,4.7c5.9,3.1,10.6,7.6,13.8,13.1c3.3,5.6,4.9,11.9,4.9,18.9
			C71.1,47,69.5,53.4,66.2,58.9z"/>
		<path class="st1" d="M9.7,70.3V9.9V9.7V6.5H6.5v67.1h25.9c0.2,0,0.4,0,0.5,0v-3.2c-0.2,0-0.3,0-0.5,0H9.7z"/>
		<path class="st2" d="M63.4,22.7c-3-5.1-7.2-9.1-12.5-11.9c-5.4-2.9-11.6-4.3-18.5-4.3H12.9v3.2h19.4c6.4,0,12.1,1.3,17,3.9
			c4.8,2.6,8.6,6.2,11.3,10.7c2.7,4.6,4,9.8,4,15.7c0,5.8-1.4,11.1-4,15.7c-2.6,4.5-6.4,8.1-11.3,10.7c-3.9,2.1-8.4,3.3-13.3,3.8
			v3.2c5.4-0.4,10.4-1.8,14.8-4.2c5.4-2.9,9.6-6.8,12.5-11.9c3-5.1,4.5-10.8,4.5-17.3C67.9,33.5,66.4,27.8,63.4,22.7z"/>
	</g>
</g>
</svg>
